<svg width="16" height="16" viewBox="0 0 16 16" fill="none" xmlns="http://www.w3.org/2000/svg">
<path d="M16 5.40348C16 4.81855 15.5398 4.33348 14.9848 4.33348L3.47885 4.33348L5.86125 1.82256C6.25381 1.40882 6.25381 0.72403 5.86125 0.310299C5.4687 -0.103433 4.81895 -0.103433 4.4264 0.310299L0.311337 4.64735C0.216583 4.74722 0.148901 4.86135 0.0947561 4.98974C0.0406103 5.11814 0.0135384 5.26081 0.0135384 5.40348C0.0135384 5.54614 0.0406103 5.67454 0.0947561 5.81721C0.203047 6.07401 0.392556 6.28801 0.649747 6.40214C0.771574 6.45921 0.90694 6.48774 1.0423 6.48774L14.9848 6.48774C15.5533 6.47347 16 6.00268 16 5.40348Z" fill="#292D32"/>
<path d="M11.5871 15.6895L15.7022 11.3525C15.797 11.2526 15.8646 11.1385 15.9188 11.0101C16.0271 10.7533 16.0271 10.4537 15.9188 10.1969C15.8105 9.9401 15.621 9.7261 15.3638 9.61197C15.242 9.5549 15.1066 9.52637 14.9712 9.52637H1.01523C0.460237 9.52637 0 10.0114 0 10.5964C0 11.1813 0.460237 11.6664 1.01523 11.6664H12.5212L10.1387 14.1773C9.9357 14.3913 9.84095 14.6623 9.84095 14.9334C9.84095 15.2045 9.9357 15.4755 10.1387 15.6895C10.5584 16.1033 11.1946 16.1033 11.5871 15.6895Z" fill="#292D32"/>
</svg>
